<svg width="280" height="243" viewBox="0 0 280 243" fill="none" xmlns="http://www.w3.org/2000/svg">
<g clip-path="url(#clip0_38:38)">
<path d="M280 239.988L80.1778 243L0.859131 228.942H124.686L280 239.988Z" fill="#3F3D56"/>
<path d="M57.406 230.613C57.406 230.613 57.8736 220.816 67.4587 221.954Z" fill="#1DB954"/>
<path d="M54.6977 221.29C57.3471 221.29 59.4949 219.142 59.4949 216.492C59.4949 213.843 57.3471 211.695 54.6977 211.695C52.0482 211.695 49.9004 213.843 49.9004 216.492C49.9004 219.142 52.0482 221.29 54.6977 221.29Z" fill="#F2DE26"/>
<path d="M55.2711 224.571H53.917V234.05H55.2711V224.571Z" fill="#1DB954"/>
<path d="M215.389 232.286C215.389 232.286 215.857 222.489 225.442 223.628Z" fill="#1DB954"/>
<path d="M212.681 222.963C215.331 222.963 217.478 220.815 217.478 218.166C217.478 215.516 215.331 213.369 212.681 213.369C210.032 213.369 207.884 215.516 207.884 218.166C207.884 220.815 210.032 222.963 212.681 222.963Z" fill="#F2DE26"/>
<path d="M213.255 226.244H211.901V235.723H213.255V226.244Z" fill="#1DB954"/>
<path d="M238.485 233.96C238.485 233.96 238.952 224.163 248.537 225.302Z" fill="#1DB954"/>
<path d="M235.776 224.637C238.426 224.637 240.574 222.489 240.574 219.839C240.574 217.19 238.426 215.042 235.776 215.042C233.127 215.042 230.979 217.19 230.979 219.839C230.979 222.489 233.127 224.637 235.776 224.637Z" fill="#F54E8A"/>
<path d="M236.35 227.918H234.996V237.397H236.35V227.918Z" fill="#1DB954"/>
<path d="M95.2283 225.927C95.2283 225.927 95.6958 216.13 105.281 217.268Z" fill="#1DB954"/>
<path d="M92.5202 216.604C95.1696 216.604 97.3174 214.456 97.3174 211.806C97.3174 209.157 95.1696 207.009 92.5202 207.009C89.8707 207.009 87.7229 209.157 87.7229 211.806C87.7229 214.456 89.8707 216.604 92.5202 216.604Z" fill="#F54E8A"/>
<path d="M93.0937 219.885H91.7395V229.364H93.0937V219.885Z" fill="#1DB954"/>
<path d="M23.9348 227.6C23.9348 227.6 24.4024 217.803 33.9875 218.942Z" fill="#1DB954"/>
<path d="M21.2267 218.277C23.8762 218.277 26.024 216.129 26.024 213.48C26.024 210.83 23.8762 208.683 21.2267 208.683C18.5773 208.683 16.4294 210.83 16.4294 213.48C16.4294 216.129 18.5773 218.277 21.2267 218.277Z" fill="#1DB954"/>
<path d="M21.8002 221.558H20.446V231.037H21.8002V221.558Z" fill="#1DB954"/>
<path d="M139.924 210.576C168.79 210.576 192.191 187.175 192.191 158.309C192.191 129.443 168.79 106.042 139.924 106.042C111.057 106.042 87.6567 129.443 87.6567 158.309C87.6567 187.175 111.057 210.576 139.924 210.576Z" fill="#FFE6B7"/>
<path d="M106.994 161.922C104.992 159.9 103.605 157.348 103 154.562C102.366 151.639 102.621 148.593 103.734 145.816C104.846 143.039 106.765 140.66 109.242 138.984C111.72 137.307 114.642 136.411 117.633 136.411C120.625 136.411 123.547 137.307 126.024 138.984C128.502 140.66 130.42 143.039 131.533 145.816C132.645 148.593 132.901 151.639 132.266 154.562C131.662 157.348 130.275 159.9 128.273 161.922C126.987 160.474 125.418 159.303 123.662 158.482C121.774 157.599 119.717 157.142 117.633 157.142C115.55 157.142 113.492 157.599 111.605 158.482C109.849 159.303 108.28 160.474 106.994 161.922Z" fill="white" stroke="black" stroke-width="0.797545"/>
<path d="M153.111 158.482C151.354 159.303 149.786 160.474 148.5 161.922C146.498 159.9 145.111 157.348 144.506 154.562C143.872 151.639 144.127 148.593 145.24 145.816C146.352 143.039 148.271 140.66 150.748 138.984C153.225 137.307 156.148 136.411 159.139 136.411C162.13 136.411 165.053 137.307 167.53 138.984C170.008 140.66 171.926 143.039 173.039 145.816C174.151 148.593 174.407 151.639 173.772 154.562C173.168 157.348 171.781 159.9 169.779 161.922C168.493 160.474 166.924 159.303 165.167 158.482C163.28 157.599 161.222 157.142 159.139 157.142C157.056 157.142 154.998 157.599 153.111 158.482Z" fill="white" stroke="black" stroke-width="0.797545"/>
<path d="M112.389 151.439C115.31 151.439 117.677 149.071 117.677 146.151C117.677 143.23 115.31 140.863 112.389 140.863C109.469 140.863 107.101 143.23 107.101 146.151C107.101 149.071 109.469 151.439 112.389 151.439Z" fill="#3F3D56"/>
<path d="M153.894 151.439C156.814 151.439 159.182 149.071 159.182 146.151C159.182 143.23 156.814 140.863 153.894 140.863C150.973 140.863 148.606 143.23 148.606 146.151C148.606 149.071 150.973 151.439 153.894 151.439Z" fill="#3F3D56"/>
<path d="M102.261 177.525C105.657 177.525 108.41 174.772 108.41 171.376C108.41 167.98 105.657 165.227 102.261 165.227C98.8646 165.227 96.1116 167.98 96.1116 171.376C96.1116 174.772 98.8646 177.525 102.261 177.525Z" fill="#F54E8A"/>
<path d="M172.975 177.525C176.371 177.525 179.124 174.772 179.124 171.376C179.124 167.98 176.371 165.227 172.975 165.227C169.579 165.227 166.826 167.98 166.826 171.376C166.826 174.772 169.579 177.525 172.975 177.525Z" fill="#F54E8A"/>
<path d="M137.618 159.078L133.006 179.062L140.692 171.376L137.618 159.078Z" fill="#F1A003"/>
<path d="M161.314 235.941L156.078 231.546L156.2 235.941H154.574L154.444 231.294L147.375 235.941H144.416L154.391 229.384L154.005 215.615L153.716 205.217L155.338 205.172L155.631 215.615L156.017 229.372L163.843 235.941H161.314Z" fill="#F1A003"/>
<path d="M136.716 235.941L131.48 231.546L131.602 235.941H129.98L129.85 231.294L122.781 235.941H119.822L129.793 229.384L129.407 215.615L129.119 205.217L130.744 205.172L131.037 215.615L131.419 229.372L139.245 235.941H136.716Z" fill="#F1A003"/>
<path d="M140.692 102.199C139.258 102.199 137.993 103.313 137.147 105.024C136.401 102.451 134.835 100.662 133.006 100.662C132.881 100.674 132.758 100.695 132.637 100.724C131.933 97.9766 130.299 96.05 128.394 96.05C125.847 96.05 123.782 99.4913 123.782 103.736C123.782 107.981 125.847 111.423 128.394 111.423C128.518 111.41 128.642 111.39 128.763 111.361C129.466 114.108 131.101 116.034 133.006 116.034C134.44 116.034 135.705 114.92 136.551 113.209C137.297 115.782 138.863 117.572 140.692 117.572C143.239 117.572 145.304 114.13 145.304 109.885C145.304 105.64 143.239 102.199 140.692 102.199Z" fill="#FFCE6F"/>
<path d="M90.8643 178.116C88.8455 178.116 86.8465 177.718 84.9814 176.946C83.1163 176.173 81.4217 175.041 79.9942 173.613C78.5667 172.186 77.4344 170.491 76.6618 168.626C75.8893 166.761 75.4917 164.762 75.4917 162.743V155.057C75.4917 150.98 77.1113 147.07 79.9942 144.187C82.8771 141.304 86.7872 139.684 90.8643 139.684V139.684V178.116Z" fill="#1DB954"/>
<path d="M188.983 139.684C191.001 139.684 193 140.082 194.866 140.855C196.731 141.627 198.425 142.759 199.853 144.187C201.28 145.614 202.413 147.309 203.185 149.174C203.958 151.039 204.355 153.038 204.355 155.057V162.743C204.355 164.762 203.958 166.761 203.185 168.626C202.413 170.491 201.28 172.186 199.853 173.613C198.425 175.041 196.731 176.173 194.866 176.946C193 177.718 191.001 178.116 188.983 178.116V178.116V139.684H188.983Z" fill="#1DB954"/>
<path d="M197.038 156.265H194.599C194.599 125.332 169.434 100.166 138.501 100.166C107.568 100.166 82.4024 125.332 82.4024 156.265H79.9634C79.9634 123.987 106.223 97.7274 138.501 97.7274C170.779 97.7274 197.038 123.987 197.038 156.265Z" fill="#1DB954"/>
<path d="M54.7985 109.256L54.799 109.255L53.6531 108.777L48.8183 106.734L47.0852 106.001L46.9522 106.337L44.6243 112.215L51.1759 114.988L51.2103 115.019L50.7688 116.06C50.7084 116.155 50.6568 116.256 50.6148 116.36C50.3055 117.141 50.8897 117.918 51.4418 118.137C51.994 118.355 52.6924 117.9 53.0017 117.119C53.3068 116.348 53.0086 115.37 52.4705 115.133L52.471 115.133L51.3251 114.655L47.4052 113.132L49.6449 107.476L49.313 107.345L47.0724 113.002L46.5877 112.814L48.837 107.134L48.8963 107.16L53.5039 109.11L53.5383 109.141L53.0968 110.182C53.0364 110.277 52.9848 110.378 52.9428 110.482C52.6335 111.263 53.2176 112.04 53.7698 112.259C54.322 112.477 55.0204 112.022 55.3297 111.241C55.6347 110.47 55.3366 109.492 54.7985 109.256Z" fill="#FFE6B7"/>
<path d="M77.475 123.686C75.0967 122.326 75.5726 119.342 75.5726 119.342C75.5128 117.404 73.9112 117.678 73.9112 117.678L73.3283 117.811C73.0575 117.685 72.7593 117.63 72.4615 117.651L71.5748 117.8C73.5939 118.274 73.428 119.963 73.428 119.963L73.7108 121.938L68.4203 119.804L69.0278 118.372C69.1117 118.24 69.1833 118.1 69.2417 117.954C69.6713 116.87 68.86 115.791 68.093 115.487C67.3261 115.184 66.3561 115.817 65.9265 116.901C65.5029 117.971 65.917 119.33 66.6643 119.658L66.6637 119.66L68.2552 120.322L68.267 120.285L77.475 123.686ZM74.7884 120.216L74.9581 122.106C74.359 121.266 74.0776 120.24 74.1639 119.211C74.1498 118.846 74.0264 118.492 73.8096 118.197C74.1429 118.411 74.4108 118.712 74.5835 119.069C74.7562 119.425 74.8272 119.822 74.7884 120.216V120.216Z" fill="#FFE6B7"/>
<path d="M37.1186 95.7296L37.1192 95.7283L35.5277 95.0655L28.8762 92.4799L30.555 90.9863C30.8834 90.5484 31.3684 90.2545 31.9085 90.166C32.4486 90.0776 33.002 90.2013 33.453 90.5115L32.932 89.7372C32.932 89.7372 31.9526 88.4406 30.5817 89.8125C30.5817 89.8125 28.8854 92.3132 26.2209 91.6757L35.3206 95.5271L35.3684 95.5704L34.7552 97.0163C34.6712 97.1485 34.5996 97.2882 34.5412 97.4335C34.1117 98.5181 34.923 99.5969 35.6899 99.9007C36.4568 100.204 37.4268 99.5714 37.8564 98.4869C38.2801 97.4171 37.866 96.058 37.1186 95.7296Z" fill="#FFE6B7"/>
<path d="M61.4702 87.2669L60.857 88.7127C60.773 88.845 60.7014 88.9847 60.643 89.13C60.2135 90.2146 61.0248 91.2934 61.7917 91.5972C62.5586 91.9009 63.5286 91.2679 63.9582 90.1834C64.3819 89.1136 63.9678 87.7545 63.2204 87.4261L63.2211 87.4248L61.6296 86.762L56.1852 84.6456L59.296 76.7912L58.8349 76.6086L55.723 84.466L55.0498 84.2043L58.1738 76.3163L58.2561 76.3511L64.6557 79.0597L64.7035 79.103L64.0903 80.5488C64.0064 80.6811 63.9347 80.8208 63.8764 80.9661C63.4468 82.0507 64.2581 83.1295 65.025 83.4333C65.7919 83.7371 66.762 83.1041 67.1915 82.0195C67.6152 80.9497 67.2011 79.5906 66.4538 79.2622L66.4544 79.2609L64.8629 78.5982L58.359 75.8487L58.3587 75.8486L58.1478 75.7595L55.7408 74.7419L52.3228 83.3722L61.4224 87.2236L61.4702 87.2669Z" fill="#FFE6B7"/>
<path d="M32.6332 43.0678L32.6343 43.0656L29.8946 41.9247L18.4443 37.4736L21.3343 34.9024C21.3343 34.9024 23.2566 32.2352 26.3231 34.0852L25.4263 32.7523C25.4263 32.7523 23.7403 30.5202 21.3803 32.8818C21.3803 32.8818 18.4602 37.1866 13.8735 36.0893L29.538 42.7193L29.6203 42.7938L28.5647 45.2827C28.4202 45.5103 28.2969 45.7508 28.1964 46.001C27.4569 47.8681 28.8535 49.7252 30.1738 50.2481C31.494 50.771 33.1638 49.6813 33.9032 47.8143C34.6326 45.9727 33.9198 43.6331 32.6332 43.0678Z" fill="#FFE6B7"/>
<path d="M41.041 80.4577C35.3546 77.2065 36.4925 70.072 36.4925 70.072C36.3494 65.4371 32.52 66.0932 32.52 66.0932L31.1264 66.4112C30.479 66.1108 29.7661 65.9789 29.054 66.028L26.934 66.3847C31.7614 67.519 31.3648 71.5573 31.3648 71.5573L32.0411 76.2791L19.3919 71.1763L20.8443 67.7519C21.045 67.4357 21.2162 67.1018 21.3558 66.7542C22.3829 64.1611 20.4431 61.5817 18.6094 60.8555C16.7757 60.1292 14.4566 61.6426 13.4296 64.2358C12.4166 66.7935 13.4066 70.043 15.1935 70.8281L15.192 70.8312L18.9971 72.4158L19.0255 72.3261L41.041 80.4577ZM34.6175 72.1612L35.0245 76.6964C32.6362 73.526 33.1244 69.7594 33.1244 69.7594C33.0907 68.8847 32.7957 68.0401 32.2772 67.3348C35.0207 68.9765 34.6175 72.1612 34.6175 72.1612H34.6175Z" fill="#FFE6B7"/>
</g>
<defs>
<clipPath id="clip0_38:38">
<rect width="279.141" height="243" fill="white" transform="translate(0.859131)"/>
</clipPath>
</defs>
</svg>
